<svg version="1.1" xmlns="http://www.w3.org/2000/svg" style="display: block;" viewBox="0 0 2048 595" width="1195" height="347" preserveAspectRatio="none">
<path transform="translate(0,0)" fill="rgb(0,0,0)" d="M 0 0 L 2048 0 L 2048 595 L 0 595 L 0 0 z"/>
<path transform="translate(0,0)" fill="rgb(254,254,254)" d="M 1600.66 149.376 C 1638.79 148.017 1684.02 149.191 1722.64 149.193 L 1954.7 149.253 C 1955.51 179.776 1955.66 210.313 1955.14 240.842 L 1640.14 240.972 L 1639.96 396.49 L 1861.75 395.77 L 1861.78 359.646 C 1824.64 359.126 1743.4 360.426 1703.02 359.631 C 1702.49 359.148 1702.03 358.729 1701.64 358.375 L 1701.53 353.524 C 1701.73 328.128 1701.76 302.731 1701.61 277.334 L 1840.9 276.949 C 1852.37 276.881 1898.91 275.834 1907.89 277.177 C 1917.24 278.604 1926.06 282.428 1933.5 288.278 C 1945.28 297.682 1953.21 313.296 1954.18 328.324 C 1955.81 353.804 1953.93 379.718 1954.72 405.31 C 1955.18 427.435 1956.47 448.243 1941.88 466.712 C 1920.62 493.628 1880.43 487.42 1848.82 487.57 L 1745.4 488.143 C 1711.58 488.678 1677.76 489.038 1643.95 489.222 C 1615.57 489.412 1588.46 493.905 1564.99 474.695 C 1552.76 464.819 1545.09 450.377 1543.76 434.713 C 1542.73 423.692 1543.27 405.782 1543.28 394.332 L 1543.29 323.043 L 1543.34 248.723 C 1543.35 232.473 1542.63 215.713 1544.9 199.635 C 1549.06 170.166 1571.97 152.034 1600.66 149.376 z"/>
<path transform="translate(0,0)" fill="rgb(254,254,254)" d="M 1437.51 149.382 C 1438.99 149.219 1440.47 149.138 1441.95 149.14 C 1466.19 149.078 1496.35 159.507 1500.71 187.077 C 1502.68 199.56 1501.98 213.178 1501.98 225.897 L 1501.94 284.001 L 1501.9 489.86 L 1404.94 490.356 L 1405.07 278.28 C 1361.69 317.779 1319.81 360.308 1276.59 399.768 C 1245.74 427.939 1188.09 489.211 1146.92 491.144 C 1125.1 491.071 1084.17 478.259 1083.22 452.349 C 1080.9 377.069 1082.3 301.194 1082.2 225.757 C 1082.17 201.061 1086.25 176.113 1086.06 150.172 L 1178.05 150.016 L 1177.94 363.59 C 1224.75 320.697 1270.22 274.351 1317.41 231.473 C 1345.03 206.378 1374 177.218 1406.12 157.76 C 1415.76 151.919 1426.55 150.47 1437.51 149.382 z"/>
<path transform="translate(0,0)" fill="rgb(0,0,0)" d="M 1434.75 332.138 C 1447.62 331.792 1462.86 330.581 1475.36 333.053 C 1485.25 335.034 1484.76 355.558 1484.25 363.485 C 1483.36 377.109 1488.64 396.025 1474.33 402.901 C 1461.55 403.149 1445.29 404.363 1433.01 402.071 C 1424.1 398.949 1423.84 379.025 1424.5 372.197 C 1425.84 358.061 1419.79 338.904 1434.75 332.138 z"/>
<path transform="translate(0,0)" fill="rgb(254,254,254)" d="M 1440.29 348.084 L 1468.13 348.053 C 1468.22 360.925 1468.19 373.796 1468.03 386.667 L 1440.21 386.684 L 1440.29 348.084 z"/>
<path transform="translate(0,0)" fill="rgb(0,0,0)" d="M 1452.39 175.978 C 1459.36 174.334 1472.81 173.738 1479.29 177.565 C 1482.43 181.148 1484.13 187.724 1484.07 192.256 C 1483.43 240.4 1493.96 249.044 1438.72 245.114 C 1435.82 244.907 1431.16 244.031 1429.32 241.873 C 1421.92 233.175 1424.98 182.47 1425.04 175.199 L 1440.49 175.282 L 1440.45 228.749 L 1468.26 228.776 C 1468.26 223.614 1469.62 194.025 1466.18 191.485 C 1457.95 192.678 1461.03 211.075 1461.15 218.197 L 1446.66 218.192 C 1446.59 209.217 1446.35 199.769 1446.52 190.83 C 1446.66 183.706 1447.32 180.526 1452.39 175.978 z"/>
<path transform="translate(0,0)" fill="rgb(0,0,0)" d="M 1425.03 253.018 L 1483.8 252.991 L 1483.75 269.679 L 1447.06 307.298 C 1458.75 307.916 1472.05 307.671 1483.86 307.71 L 1483.82 323.764 C 1464.38 324.025 1444.43 323.802 1424.95 323.813 L 1424.99 307.765 C 1437.36 294.731 1449.88 281.848 1462.56 269.118 L 1424.99 269.033 L 1425.03 253.018 z"/>
<path transform="translate(0,0)" fill="rgb(0,0,0)" d="M 1454.58 431.569 C 1464.18 423.315 1473.94 415.25 1483.86 407.381 L 1484.01 427.219 C 1478.15 433.031 1468.24 440.689 1461.61 446.102 L 1461.71 461.995 L 1479.25 462.014 L 1482.43 462.299 C 1485.13 465.986 1484.07 473.47 1483.81 478.297 L 1424.94 478.332 L 1424.98 462.041 L 1447 462.016 L 1447.03 446.165 C 1440.76 440.316 1431.6 433.096 1424.93 427.534 L 1425.03 408.477 C 1430.14 411.296 1449.21 427.197 1454.58 431.569 z"/>
<path transform="translate(0,0)" fill="rgb(254,254,254)" d="M 469.858 148.93 L 574.783 148.918 L 571.091 175.306 C 558.213 191.914 538.441 213.342 524.312 229.476 L 442.904 322.042 C 454.655 338.611 476.368 360.568 490.099 376.126 C 519.426 409.354 548.599 443.017 578.331 475.852 L 594.975 495.013 L 471.081 495.254 L 355.276 364.508 L 261.694 365.089 C 261.367 384.645 262.318 405.324 262.673 424.95 C 262.937 448.596 263.055 472.244 263.025 495.891 L 162.502 496.168 L 160.13 150.016 L 256.558 149.483 C 259.823 149.509 259.366 148.982 261.411 150.667 C 262.329 164.342 261.676 183.35 261.625 197.669 C 261.486 224.97 261.489 252.273 261.633 279.574 L 355.784 279.51 C 394.017 236.876 431.808 192.067 469.858 148.93 z"/>
<path transform="translate(0,0)" fill="rgb(254,254,254)" d="M 1012.18 51.2788 C 1013.19 51.4402 1014.18 51.6575 1015.16 51.9296 C 1027.72 55.4688 1053.33 91.2451 1060 103.051 L 936.921 170.396 C 924.213 177.34 877.942 204.512 865.622 205.937 C 852.628 202.567 835.056 175.015 828.377 163.712 C 828.375 171.711 829.019 177.114 825.286 184.239 C 818.782 196.652 795.15 210.326 782.124 214.478 C 756.061 207.48 654.223 139.185 630.161 122.043 C 621.413 115.966 613.598 110.491 605.222 103.838 C 613.134 91.2337 624.484 80.9859 637.759 74.2573 C 650.562 67.768 664.102 72.1074 676.881 76.1127 C 700.857 83.6271 723.993 93.4217 747.617 101.95 C 742.738 92.5392 737.808 83.1549 732.828 73.7972 C 764.557 87.1812 799.709 118.398 828.264 138.829 C 834.478 133.411 843.092 123.872 849.535 117.757 C 870.862 97.5151 893.572 76.7463 918.513 61.1056 C 913.204 73.4442 908.306 85.9563 903.829 98.6209 C 936.131 84.2065 976.445 57.4474 1012.18 51.2788 z"/>
<path transform="translate(0,0)" fill="rgb(254,254,254)" d="M 918.599 379.389 C 942.456 377.005 971.325 383.657 982.963 407.851 C 990.445 423.405 971.709 431.68 959.983 436.24 C 953.545 429.732 947.706 424.255 938.505 422.017 C 913.515 415.937 886.159 431.231 865.56 443.139 C 902.419 434.096 920.312 429.29 955.483 448.414 C 947.673 477.491 922.739 534.8 902.624 558.79 C 895.255 567.579 864.632 564.488 852.268 563.701 C 844.79 544.605 839.738 529.902 834.178 510.144 C 828.003 527.395 821.615 544.568 815.016 561.661 C 814.398 563.276 813.656 564.319 812.73 565.747 C 805.826 570.127 773.64 575.57 764.535 576.544 C 744.84 555.32 723.262 527.116 706.735 503.639 C 699.051 492.725 736.662 479.436 744.247 476.316 C 716.943 478.415 704.483 485.663 681.174 498.372 C 680.266 497.875 679.365 497.366 678.471 496.844 C 669.914 491.836 653.631 475.8 660.113 465.004 C 673.754 459.082 693.74 452.562 708.29 448.262 C 777.521 427.803 846.701 387.587 918.599 379.389 z"/>
<path transform="translate(0,0)" fill="rgb(254,254,254)" d="M 1003.63 182.002 C 1024.15 147.228 1013.35 145.847 1053.03 126.617 C 1054.79 146.696 1056.76 258.176 1015.37 264.998 C 1011.38 265.655 985.375 256.555 978.315 254.665 C 968.566 252.07 958.712 249.889 948.779 248.126 C 960.936 256.883 967.497 260.642 977.067 272.506 C 953.792 259.943 932.373 249.362 906.954 241.064 C 892.653 236.395 876.64 233.502 862.884 228.69 C 875.545 226.441 901.011 225.341 909.638 223.17 L 909.618 221.269 C 917.033 219.035 942.358 223.525 947.846 219.76 C 942.943 217.899 927.974 218.068 921.572 215.836 C 919.631 215.159 911.954 212.261 910.669 212.389 L 911.509 215.367 L 910.414 215.922 C 908.801 215.166 903.793 209.672 903.304 208.336 L 905.823 205.784 C 906.341 202.593 906.489 201.81 907.919 198.922 C 918.703 190.934 929.607 182.6 940.914 175.077 C 944.047 172.992 960.131 168.878 964.721 165.668 C 965.667 165.007 970.475 166.308 971.832 163.512 L 968.443 161.813 L 968.948 160.74 C 976.175 159.74 985.398 158.141 992.493 158.452 C 998.993 160.882 1000.55 176.139 1003.63 182.002 z"/>
<path transform="translate(0,0)" fill="rgb(25,0,0)" d="M 905.823 205.784 C 906.341 202.593 906.489 201.81 907.919 198.922 C 918.703 190.934 929.607 182.6 940.914 175.077 C 944.047 172.992 960.131 168.878 964.721 165.668 C 965.667 165.007 970.475 166.308 971.832 163.512 L 968.443 161.813 L 968.948 160.74 C 976.175 159.74 985.398 158.141 992.493 158.452 C 998.993 160.882 1000.55 176.139 1003.63 182.002 C 975.287 238.919 965.49 221.246 909.638 223.17 L 909.618 221.269 C 917.033 219.035 942.358 223.525 947.846 219.76 C 942.943 217.899 927.974 218.068 921.572 215.836 C 919.631 215.159 911.954 212.261 910.669 212.389 L 911.509 215.367 L 910.414 215.922 C 908.801 215.166 903.793 209.672 903.304 208.336 L 905.823 205.784 z"/>
<path transform="translate(0,0)" fill="rgb(236,2,36)" d="M 905.823 205.784 C 918.433 197.282 978.112 161.619 989.761 159.586 C 990.524 161.843 989.526 163.378 988.722 166.012 C 968.571 210.446 962.884 209.675 916.187 209.291 C 911.365 209.244 908.102 208.913 903.304 208.336 L 905.823 205.784 z"/>
<path transform="translate(0,0)" fill="rgb(88,0,2)" d="M 916.187 209.291 C 962.884 209.675 968.571 210.446 988.722 166.012 C 991.745 173.976 991.736 179.157 988.045 187.084 C 976.861 211.098 945.238 223.982 921.12 211.744 C 919.717 211.034 917.536 209.708 916.187 209.291 z"/>
<path transform="translate(0,0)" fill="rgb(254,254,254)" d="M 613.542 135.975 C 621.1 151.901 629.024 167.651 637.307 183.212 C 644.352 197.059 652.599 211.491 661.612 224.169 L 666.726 232.021 C 659.18 236.674 651.552 241.824 644.118 246.705 C 683.73 240.85 746.836 230.438 784.904 234.805 C 754.907 239.467 707.394 254.146 682.433 271.574 C 712.849 261.525 732.655 255.185 764.879 251.993 C 738.125 269.225 709.915 289.512 688.967 313.523 C 683.96 319.261 675.88 331.302 669.624 334.521 C 661.687 335.592 654.079 326.803 648.547 322.006 C 629.336 305.345 618.424 289.403 608.953 265.968 C 606.146 276.816 603.767 287.769 601.82 298.803 C 592.811 244.363 596.828 188.563 613.542 135.975 z"/>
<path transform="translate(0,0)" fill="rgb(254,254,254)" d="M 803.148 242.979 L 805.243 243.455 C 805.63 248.394 790.791 273.358 787.791 281.99 C 799.745 303.169 822.661 310.659 833.207 329.183 C 840.802 342.524 837.438 367.414 832.427 382.174 C 822.856 387.574 806.996 393.6 796.601 397.47 C 782.57 381.845 767.671 354.521 753.621 341.042 C 742.177 362.042 735.222 384.231 728.108 406.912 L 724.564 418.114 C 713.685 424.753 704.999 428.954 693.093 433.439 C 701.088 395.387 719.467 341.73 741.064 309.825 C 749.657 297.13 761.013 285.438 772.405 275.296 C 756.687 280.727 748.912 284.151 734.399 292.261 C 754.436 270.222 774.849 252.656 803.148 242.979 z"/>
<path transform="translate(0,0)" fill="rgb(254,254,254)" d="M 867.827 241.598 C 869.658 241.923 871.474 242.326 873.27 242.806 C 901.206 250.16 958.919 278.998 973.778 304.4 C 960.41 297.847 950.755 293.269 936.516 289.139 C 959.315 318.597 967.427 336.258 967.239 373.976 L 953.62 367.879 C 917.978 351.431 883.562 364.166 848.701 375.5 C 842.998 372.502 843.863 347.466 844.025 341.247 C 844.499 322.981 862.943 316.516 875.369 307.183 C 882.75 301.64 889.595 295.871 896.615 289.768 C 888.395 271.186 878.087 258.478 867.827 241.598 z"/>
<path transform="translate(0,0)" fill="rgb(25,0,0)" d="M 637.307 183.212 C 638.505 177.866 644.113 162.368 649.882 159.292 C 669.507 148.828 753.358 200.381 752.508 217.656 L 751.244 219.746 C 743.056 221.743 744.39 228.682 730.046 229.057 C 729.078 229.779 728.094 230.511 727.128 231.234 C 722.764 234.495 694.61 230.922 692.251 233.013 C 694.345 234.372 695.561 234.597 696.193 236.53 L 694.189 234.316 L 696.696 236.309 C 692.088 238.136 671.479 224.756 661.612 224.169 C 652.599 211.491 644.352 197.059 637.307 183.212 z"/>
<path transform="translate(0,0)" fill="rgb(236,2,36)" d="M 650.76 162.575 C 664.163 166.397 736.53 206.603 748.389 216.158 L 748.557 217.858 C 694.965 222.778 665.654 224.033 650.76 162.575 z"/>
<path transform="translate(0,0)" fill="rgb(254,254,254)" d="M 841.646 254.377 C 848.083 254.577 854.407 255.325 859.768 259.059 C 866.24 263.567 879.758 274.655 873.95 283.418 C 871.091 283.079 864.252 270.343 855.801 271.113 C 854.038 271.263 852.419 272.145 851.337 273.545 C 846.264 280.02 847.578 293.917 848.323 301.675 C 854.056 301.552 859.915 301.56 865.66 301.508 C 854.602 308.905 846.644 310.346 833.599 307.942 C 830.756 306.903 831.036 307.479 829.444 305.39 C 832.892 303.545 842.688 297.449 837.982 292.689 C 832.014 286.653 842.349 277.049 838.582 268.569 C 826.366 259.385 816.106 281.396 813.419 290.645 C 809.744 287.709 807.711 285.14 804.667 281.558 C 812.195 265.45 823.917 256.152 841.646 254.377 z"/>
<path transform="translate(0,0)" fill="rgb(254,254,254)" d="M 755.556 370.629 C 768.005 371.65 775.597 391.744 780.683 401.961 C 772.852 404.671 764.999 407.32 757.125 409.907 L 737.508 415.849 C 742.483 398.776 746.363 385.789 755.556 370.629 z"/>
<path transform="translate(0,0)" fill="rgb(254,254,254)" d="M 833.329 234.142 C 845.393 233.298 850.695 237.382 858.502 245.955 C 847.459 242.397 840.954 241.163 829.802 244.699 C 822.787 248.342 818.205 252.246 812.424 257.395 C 818.859 245.639 821.141 240.408 833.329 234.142 z"/>
</svg>